<svg width="64" height="64" viewBox="0 0 64 64" fill="none" xmlns="http://www.w3.org/2000/svg">
<path fill-rule="evenodd" clip-rule="evenodd" d="M28.9606 0.0776948C18.9395 1.11949 10.1716 6.56275 4.83643 15.0545C-1.34924 24.9001 -1.62276 37.7301 4.13878 47.7827C7.17134 53.0737 11.6196 57.4242 16.8699 60.2337C21.3372 62.6242 26.2688 63.9426 30.8995 63.9847L32.5895 64L32.6214 51.5709L32.6533 39.1418H29.2102H25.767V35.1364V31.1311L29.1783 31.0977L32.5895 31.0644L32.6604 26.8692C32.7247 23.0613 32.7567 22.5815 33.0072 21.6722C33.9605 18.2122 36.2605 15.9103 39.7249 14.9489C40.626 14.6988 41.0215 14.6705 43.6682 14.6669C45.2862 14.6646 47.1592 14.7096 47.8305 14.7667L49.0511 14.8705V18.4805V22.0906L46.078 22.1324C43.122 22.1738 43.1011 22.1761 42.4587 22.5145C41.0794 23.241 40.9142 23.8231 40.9142 27.9536V31.127H44.8574C47.0262 31.127 48.8004 31.1694 48.8002 31.221C48.7999 31.2726 48.5746 33.0302 48.2995 35.1265C48.0243 37.2229 47.7992 38.984 47.7992 39.04C47.7992 39.0959 46.2501 39.1418 44.3567 39.1418H40.9142V50.976C40.9142 57.4849 40.9361 62.8103 40.9629 62.8103C41.2016 62.8103 44.1812 61.6831 45.3092 61.166C49.0742 59.4404 51.9976 57.3623 54.9994 54.2782C57.6111 51.5951 59.2322 49.2753 60.8954 45.8416C62.3739 42.7887 63.3826 39.3847 63.8454 35.8858C64.0515 34.3283 64.0515 29.5083 63.8456 28.0589C62.7933 20.654 59.7367 14.4243 54.6678 9.3535C49.7026 4.38637 43.5136 1.2888 36.4702 0.245503C34.9346 0.0179599 30.4901 -0.0812225 28.9606 0.0776948Z" fill="#465A64"/>
</svg>
