<svg width="64" height="64" viewBox="0 0 64 64" fill="none" xmlns="http://www.w3.org/2000/svg">
<path fill-rule="evenodd" clip-rule="evenodd" d="M28.962 0.0777045C18.9483 1.119 10.1722 6.5687 4.84097 15.0564C-2.71787 27.0906 -1.30711 42.9847 8.24939 53.4548C13.5382 59.2493 20.1525 62.7135 28.0845 63.8433C29.5653 64.0542 34.4865 64.0516 36.0326 63.8391C43.2769 62.843 49.7648 59.63 54.6991 54.5949C56.3185 52.9424 56.6635 52.5473 57.7377 51.1147C60.9386 46.8454 63.0343 41.641 63.843 35.9529C64.0524 34.4793 64.0524 29.5353 63.8428 28.0624C63.3034 24.2706 62.3226 21.0399 60.749 17.8713C59.0816 14.5142 57.3707 12.1209 54.7075 9.42043C49.7673 4.41097 43.5818 1.2991 36.4707 0.245534C34.9353 0.0179622 30.4913 -0.0812327 28.962 0.0777045ZM39.5783 13.722C43.1761 13.9551 45.2799 14.7436 47.2041 16.5801C49.1591 18.4462 50.0611 20.7383 50.3014 24.4518C50.4598 26.8988 50.4596 37.0519 50.3011 39.5377C50.0622 43.2867 49.141 45.6049 47.1367 47.5017C45.2708 49.2676 43.1137 50.0643 39.5783 50.2933C37.1766 50.449 26.8779 50.449 24.4762 50.2933C20.8784 50.0602 18.7746 49.2717 16.8504 47.4352C14.8954 45.5692 13.9934 43.277 13.7531 39.5635C13.5959 37.1349 13.5968 26.6908 13.7545 24.3803C14.0047 20.7127 14.9098 18.4324 16.8504 16.5801C18.6965 14.8182 20.9157 13.9493 24.126 13.7315C26.2418 13.588 37.4044 13.5811 39.5783 13.722ZM27.4587 16.9922C23.6985 17.0599 23.0916 17.099 22.2462 17.3281C19.5836 18.0496 18.0721 19.5628 17.3592 22.2204C17.1324 23.066 17.0932 23.6933 17.0235 27.5927C16.9802 30.021 16.9802 33.9944 17.0235 36.4226C17.0932 40.322 17.1324 40.9494 17.3592 41.7949C18.0724 44.4535 19.5893 45.9713 22.2462 46.685C23.0912 46.9119 23.7182 46.9511 27.6151 47.0209C30.0419 47.0642 34.0128 47.0642 36.4394 47.0209C40.3684 46.9506 40.9587 46.9132 41.8296 46.6795C44.4218 45.984 45.9915 44.4138 46.6912 41.8162C46.9268 40.9417 46.9631 40.3673 47.0324 36.4226C47.075 33.9944 47.075 30.0209 47.0324 27.5927C46.9637 23.6796 46.9255 23.069 46.6967 22.2204C45.9784 19.557 44.4561 18.0352 41.8083 17.3338C40.8324 17.0755 40.5739 17.0633 33.5293 16.9458C32.531 16.9292 29.7993 16.95 27.4587 16.9922ZM42.627 20.1173C43.1065 20.2985 43.6625 20.839 43.8709 21.3264C44.4757 22.7408 43.3962 24.3677 41.8529 24.3677C40.6734 24.3677 39.6624 23.3617 39.6624 22.188C39.6624 20.6714 41.2183 19.5846 42.627 20.1173ZM35.0639 23.0771C36.5776 23.6084 37.4181 24.1376 38.606 25.307C39.7577 26.4406 40.4775 27.5707 40.9995 29.0644C41.3247 29.9952 41.3496 30.2042 41.3496 32.0077C41.3496 33.8111 41.3247 34.0201 40.9995 34.9509C40.4949 36.3948 39.7559 37.571 38.6715 38.6561C37.587 39.7412 36.4116 40.4807 34.9687 40.9855C34.0384 41.3109 33.8295 41.3359 32.0273 41.3359C30.225 41.3359 30.0161 41.3109 29.0858 40.9855C27.5931 40.4633 26.4637 39.743 25.3308 38.5906C24.1679 37.4078 23.6398 36.5709 23.0947 35.0463C22.718 33.9927 22.7024 33.8716 22.7064 32.0077C22.7102 30.2381 22.7404 29.9777 23.0475 29.0644C23.6999 27.1237 25.092 25.2962 26.766 24.1825C28.6007 22.9622 29.9108 22.5986 32.2776 22.6533C33.7852 22.6881 34.0856 22.7338 35.0639 23.0771ZM30.551 26.0656C27.2603 26.9519 25.2561 30.2557 26.0828 33.4316C26.6814 35.7311 28.3094 37.3578 30.6132 37.9582C34.9151 39.0794 39.0946 34.8973 37.9741 30.5928C37.1019 27.2423 33.7568 25.2022 30.551 26.0656Z" fill="#465A64"/>
</svg>
